<svg width="624" height="449" viewBox="0 0 624 449" fill="none" xmlns="http://www.w3.org/2000/svg">
<path d="M92.4088 448.518C82.3813 448.518 70.4022 447.137 54.4525 444.007C12.1218 435.522 -31.2857 410.037 -77.1159 383.086C-102.353 368.286 -128.397 352.978 -154.576 340.433C-192.802 317.767 -257.61 302.149 -320.332 287.011C-366.162 275.96 -409.435 265.501 -442.95 252.589L-443.017 252.561C-468.187 242.525 -479.964 232.827 -479.022 222.932C-477.205 203.621 -426.933 186.425 -368.652 166.522L-363.067 164.605C-319.861 149.776 -265.619 129.929 -187.081 100.3L-180.419 97.876C-110.159 72.2784 -22.6714 40.4223 90.659 21.1114C317.656 -23.6281 516.321 11.0189 579.043 48.5696C644.457 92.4633 638.804 139.063 557.508 226.766C472.375 318.19 283.805 388.865 206.681 414.999C175.118 423.625 155.333 431.265 140.931 436.847C122.626 443.895 110.714 448.518 92.4088 448.518ZM-437.028 249.883C-404.253 262.513 -361.384 272.859 -316.025 283.825C-252.563 299.133 -186.879 314.976 -147.846 338.15C-121.6 350.695 -95.421 366.087 -70.1168 380.944C-24.8923 407.5 17.8422 432.59 58.0866 440.681C97.8599 448.433 107.214 444.825 135.009 434.112C149.68 428.446 169.802 420.665 201.567 411.982C277.748 386.131 464.973 315.991 549.365 225.385C629.517 138.951 635.372 93.1962 571.775 50.5429C510.87 14.1199 316.849 -19.484 94.1586 24.4097C-18.0278 43.5515 -104.91 75.182 -174.698 100.582L-181.294 103.007C-259.898 132.664 -314.208 152.539 -357.548 167.395L-363.134 169.312C-419.799 188.652 -468.658 205.369 -470.34 223.017C-471.148 231.84 -460.245 240.608 -437.028 249.883Z" fill="#CCCCCC"/>
<path d="M79.347 422.977C65.4836 422.977 50.8125 421.116 30.623 417.818L30.2192 417.761C-8.54465 409.614 -39.2327 389.965 -71.6705 369.188C-93.8117 354.98 -116.76 340.32 -144.353 327.549C-183.251 306.829 -232.177 290.704 -279.421 275.114C-311.185 264.655 -341.2 254.76 -367.379 243.822L-367.851 243.596C-421.151 213.178 -382.925 199.759 -313.608 175.373C-306.071 172.723 -298.129 169.932 -289.852 166.944C-273.566 161.898 -256.203 156.26 -237.763 150.283C-155.861 123.699 -43.6071 87.3041 114.746 57.7597C308.296 26.7212 457.833 49.1614 520.286 85.1615C582.873 122.684 558.579 167.846 488.252 243.286C411.195 319.571 270.542 368.962 194.966 395.49L186.553 398.45C130.359 415.929 106.266 422.977 79.347 422.977ZM33.9879 414.435C89.1053 423.4 98.4598 421.257 181.169 395.603L189.38 392.728C264.35 366.397 403.927 317.372 480.176 241.961C549.359 167.79 573.519 123.473 513.22 87.3323C452.786 52.4879 307.152 30.8653 118.111 61.1708C-39.0981 90.4897 -150.813 126.744 -232.446 153.187C-250.886 159.163 -268.249 164.802 -284.401 169.82C-292.476 172.723 -300.418 175.514 -307.955 178.193C-377.34 202.606 -409.104 213.77 -360.986 241.341C-335.211 252.082 -305.465 261.864 -274.037 272.238C-226.322 287.941 -177.06 304.207 -137.69 325.181C-109.829 338.065 -86.6781 352.865 -64.335 367.186C-32.6375 387.484 -2.62241 406.682 33.9879 414.435Z" fill="#CCCCCC"/>
<path d="M68.0607 401.664C50.3612 401.664 33.9404 399.014 13.4817 394.504C-20.7059 385.877 -48.1637 368.032 -77.2366 349.172C-94.4649 337.952 -112.366 326.366 -132.825 315.737C-161.427 299.048 -195.345 284.784 -228.052 270.97C-254.904 259.637 -280.276 248.953 -300.263 237.93L-300.532 237.761C-341.046 209.175 -299.187 195.84 -223.139 171.624L-222.264 171.342L-208.199 167.311C-128.114 144.448 -18.4177 113.127 131.859 90.4335C309.258 66.7247 422.185 90.8845 465.054 118.737C510.884 148.451 499.645 188.341 426.29 256.423C372.855 303.869 285.636 346.522 167.124 383.199C121.294 396.223 93.3649 401.664 68.0607 401.664ZM-293.197 235.759C-273.546 246.556 -248.444 257.156 -221.861 268.348C-188.884 282.246 -154.764 296.652 -125.893 313.482C-105.233 324.167 -87.2639 335.866 -69.901 347.171C-41.4337 365.692 -14.5144 383.171 17.7888 391.318C64.3593 401.636 87.5772 401.439 162.077 380.211C279.31 343.901 365.587 301.726 418.349 254.873C490.291 188.088 501.731 149.212 457.718 120.683C413.234 91.7866 296.135 72.2783 134.619 93.8446C-14.4471 116.369 -123.605 147.521 -203.286 170.299L-217.89 174.5C-294.476 198.885 -329.538 210.049 -293.197 235.759Z" fill="#CCCCCC"/>
<path d="M61.7387 382.269C41.953 382.269 23.3787 379.422 2.65079 373.84L2.51616 373.812C-28.7103 364.847 -53.8798 347.989 -80.53 330.172C-92.8456 321.912 -105.632 313.398 -119.496 305.279C-138.003 293.383 -158.529 282.388 -178.382 271.788C-202.744 258.764 -225.827 246.444 -240.902 234.491C-267.216 209.26 -228.721 196.067 -162.23 177.263C-93.7205 159.503 12.1399 134.187 141.891 119.245C265.787 108.561 358.592 117.131 403.48 143.349C451.935 171.597 439.888 216.392 370.436 266.263C297.687 324.957 182.674 359.378 149.159 368.512C113.491 377.759 86.6391 382.269 61.7387 382.269ZM7.36166 370.767C46.1255 381.17 76.5443 383.031 144.448 365.411C177.425 356.418 290.957 322.448 362.764 264.487C430.466 215.857 442.715 172.499 396.346 145.491C353.544 120.514 263.903 112.48 143.843 122.826C15.4374 137.626 -89.6825 162.745 -157.587 180.364C-226.029 199.703 -255.842 211.205 -233.163 232.941C-218.559 244.471 -195.745 256.649 -171.585 269.561C-151.597 280.245 -130.936 291.268 -112.362 303.249C-98.4313 311.369 -85.6447 319.967 -73.2617 328.255C-47.0154 345.705 -22.3169 362.225 7.36166 370.767Z" fill="#CCCCCC"/>
<path d="M57.5607 364.564C36.5636 364.564 17.249 361.548 -2.80594 355.515L-3.34435 355.317C-80.1318 322.757 -170.917 248.191 -188.348 233.588L-188.617 233.25C-202.211 212.332 -171.523 200.04 -110.214 184.676C-52.4722 171.088 38.7172 153.158 145.587 144.786C243.977 138.302 317.669 147.041 353.202 169.396C392.639 194.233 380.593 231.981 320.226 272.971C267.061 312.495 188.725 340.94 133.137 354.359C104.064 361.181 79.8365 364.564 57.5607 364.564ZM2.57796 352.639C41.0053 364.113 75.2602 363.718 128.762 351.173C183.341 338.008 260.263 310.042 312.689 271.11C370.431 231.896 382.814 194.656 345.934 171.426C312.42 150.311 241.756 142.107 147.068 148.394C41.4764 156.682 -48.7034 174.443 -105.84 187.862C-164.524 202.549 -192.184 213.459 -180.339 232.15C-130.269 274.099 -56.0389 327.718 2.57796 352.639Z" fill="#CCCCCC"/>
<path d="M54.4888 348.243C32.0112 348.243 12.562 345.113 -2.17636 339.052C-61.1297 315.118 -122.506 264.627 -140.609 234.266C-143.57 227.246 -139.33 220.395 -128.159 213.855C-93.7022 193.698 8.38956 176.304 145.005 167.34C222.062 164.21 279.535 172.865 306.992 191.725C338.084 213.094 326.913 244.189 276.372 277.003C210.621 318.529 131.949 345.029 65.9297 347.961C62.0264 348.158 58.1903 348.243 54.4888 348.243ZM175.02 170.356C165.733 170.356 156.109 170.553 146.149 170.976C12.0909 179.772 -87.9144 196.602 -120.958 215.998C-130.784 221.749 -134.485 227.641 -131.995 233.533C-114.228 263.274 -53.9288 312.947 4.01508 336.459C19.2918 342.717 40.4235 345.452 65.0547 344.352C128.517 341.533 204.833 315.625 269.103 275.03C317.02 243.907 328.461 213.489 299.59 193.642C277.448 178.447 233.772 170.356 175.02 170.356Z" fill="#CCCCCC"/>
<path d="M56.2865 332.737C35.424 332.737 17.0515 329.918 2.71695 324.449C-48.4298 305.025 -95.7406 263.95 -98.4325 236.577V236.52C-98.769 211.289 1.37095 190.569 139.602 187.298C198.488 186.706 242.165 194.938 262.691 210.556C286.245 228.458 276.554 253.294 236.108 278.722C186.105 309.62 123.517 329.692 68.602 332.427C64.3622 332.624 60.2571 332.737 56.2865 332.737ZM-89.6837 236.464C-86.9918 263.02 -41.0943 302.882 8.63924 321.742C23.7814 327.521 44.1055 329.946 67.5253 328.79C119.951 326.168 180.25 306.688 228.84 276.664C267.401 252.42 276.958 228.937 255.019 212.276C236.108 197.926 195.325 190.315 139.938 190.907C8.84109 194.036 -89.9529 213.629 -89.6837 236.464Z" fill="#CCCCCC"/>
<path d="M57.7895 318.049C39.5517 318.049 23.2655 315.709 10.1423 311.114C-35.9571 295.073 -68.7315 262.597 -61.5305 240.157C-53.7239 218.619 30.1972 203.17 129.26 204.946C172.735 205.989 204.769 213.488 219.575 226.033C236.534 240.411 228.795 259.496 198.241 278.356C162.169 300.43 114.589 315.117 70.98 317.654C66.471 317.936 62.0966 318.049 57.7895 318.049ZM113.58 208.47C25.6882 208.47 -46.1192 222.086 -52.849 240.693C-59.5788 261.639 -27.5448 293.241 15.7281 308.323C29.9953 313.285 48.637 315.258 69.7686 314.046C111.023 311.65 156.314 297.526 191.04 276.298C219.777 258.566 227.314 240.833 211.768 227.64C198.443 216.335 168.966 209.569 128.857 208.583C123.742 208.526 118.627 208.47 113.58 208.47Z" fill="#CCCCCC"/>
<path d="M61.9069 304.011C47.2359 304.011 33.9108 302.235 22.7393 298.767C-15.9572 286.73 -37.6946 262.513 -25.7155 244.781C-13.5345 227.246 49.7259 216.703 118.168 220.762C148.52 222.651 170.796 228.966 180.89 238.551C192.331 249.404 186.678 263.162 165.412 276.299C140.983 291.296 108.208 301.22 75.5012 303.503C70.9249 303.842 66.3486 304.011 61.9069 304.011ZM-17.3032 245.796C-28.2055 261.893 -7.47762 284.812 27.9213 295.835C40.5061 299.754 56.4558 301.163 74.088 299.923C104.036 297.809 135.531 288.224 158.278 274.269C177.795 262.203 183.111 249.743 172.949 240.045C164.133 231.644 144.213 226.09 116.957 224.399C53.7639 220.621 -6.46815 230.234 -17.3032 245.796Z" fill="#CCCCCC"/>
<path d="M65.2865 290.422C55.1244 290.422 45.2989 289.322 36.6847 286.954C7.88097 279.145 -5.57871 262.569 6.60229 250.024C18.8506 237.535 62.5273 230.797 104.05 235.026C123.23 236.971 137.228 241.736 143.487 248.389C150.352 255.718 146.852 264.627 133.931 272.802C116.097 284.022 89.6485 290.422 65.2865 290.422ZM41.3955 283.91C66.2286 290.647 104.454 284.784 126.663 270.801C137.969 263.64 141.199 255.944 135.344 249.742C130.162 244.216 118.318 240.241 101.964 238.578C64.4789 234.772 25.3113 240.523 14.6782 251.405C3.97774 262.428 15.9568 277.003 41.3955 283.91Z" fill="#CCCCCC"/>
<path d="M67.8195 277.088C62.301 277.088 56.9171 276.552 52.0043 275.424C35.1797 271.562 28.3826 262.682 36.9295 255.606C45.3418 248.614 68.4251 245.26 88.2781 248.135C97.8345 249.517 104.834 252.279 107.862 255.944C111.092 259.806 109.544 264.317 103.555 268.292C95.008 273.902 81.2118 277.088 67.8195 277.088ZM73.2033 250.757C61.0223 250.757 49.5143 253.21 44.6015 257.269C38.2082 262.597 43.3228 269.307 56.1095 272.211C68.8289 275.142 86.7976 272.492 96.0848 266.319C100.728 263.246 101.94 260.004 99.5169 257.128C97.3634 254.535 92.316 252.561 85.317 251.546C81.3464 251.011 77.2412 250.757 73.2033 250.757Z" fill="#CCCCCC"/>
</svg>
